<svg width="20" height="20" viewBox="0 0 20 20" fill="none" xmlns="http://www.w3.org/2000/svg">
<path d="M1.74531 9.2394C1.73532 9.12434 1.74936 9.00846 1.78653 8.89911C1.8237 8.78976 1.88319 8.68933 1.96124 8.6042C2.03928 8.51906 2.13417 8.45108 2.23988 8.40456C2.34559 8.35805 2.45982 8.33401 2.57531 8.33398H4.16656C4.38758 8.33398 4.59954 8.42178 4.75582 8.57806C4.9121 8.73434 4.99989 8.9463 4.99989 9.16732V17.084C4.99989 17.305 4.9121 17.517 4.75582 17.6732C4.59954 17.8295 4.38758 17.9173 4.16656 17.9173H3.26406C3.05549 17.9174 2.85448 17.8392 2.70074 17.6983C2.54699 17.5573 2.45169 17.3639 2.43364 17.1561L1.74531 9.2394ZM7.4999 8.9069C7.4999 8.55857 7.71656 8.2469 8.03115 8.09857C8.71823 7.7744 9.88865 7.12315 10.4166 6.24273C11.097 5.10773 11.2253 3.05732 11.2461 2.58773C11.2491 2.5219 11.2474 2.45607 11.2561 2.39107C11.3691 1.57732 12.9395 2.52773 13.5416 3.53273C13.8686 4.07773 13.9103 4.79398 13.8761 5.35357C13.8391 5.9519 13.6636 6.52982 13.4916 7.10398L13.1249 8.32773H17.6486C17.7774 8.32772 17.9044 8.35755 18.0197 8.41487C18.135 8.47219 18.2354 8.55545 18.3131 8.6581C18.3908 8.76076 18.4437 8.88003 18.4676 9.00655C18.4915 9.13307 18.4857 9.2634 18.4507 9.38732L16.2132 17.3106C16.1638 17.4854 16.0587 17.6392 15.9139 17.7487C15.769 17.8583 15.5923 17.9174 15.4107 17.9173H8.33323C8.11221 17.9173 7.90025 17.8295 7.74397 17.6732C7.58769 17.517 7.4999 17.305 7.4999 17.084V8.9069Z" stroke="#07367A" stroke-linecap="round" stroke-linejoin="round"/>
</svg>
