<svg width="1440" height="893" viewBox="0 0 1440 893" fill="none" xmlns="http://www.w3.org/2000/svg">
<rect x="689.867" y="790.277" width="60.2649" height="101.722" rx="4" fill="black" stroke="black" stroke-width="2" stroke-linejoin="round"/>
<mask id="path-2-inside-1_1226_9106" fill="white">
<path fill-rule="evenodd" clip-rule="evenodd" d="M664.798 18.7695H0V879.172H664.681C676.691 879.172 687.466 884.465 694.798 892.846V48.7695C694.798 32.201 681.366 18.7695 664.798 18.7695Z"/>
</mask>
<path fill-rule="evenodd" clip-rule="evenodd" d="M664.798 18.7695H0V879.172H664.681C676.691 879.172 687.466 884.465 694.798 892.846V48.7695C694.798 32.201 681.366 18.7695 664.798 18.7695Z" fill="url(#paint0_linear_1226_9106)"/>
<path d="M0 18.7695V14.7695C-2.20914 14.7695 -4 16.5604 -4 18.7695H0ZM0 879.172H-4C-4 881.381 -2.20914 883.172 0 883.172L0 879.172ZM694.798 892.846L691.787 895.48C692.884 896.734 694.644 897.177 696.204 896.591C697.764 896.005 698.798 894.513 698.798 892.846H694.798ZM0 22.7695H664.798V14.7695H0V22.7695ZM4 879.172V18.7695H-4V879.172H4ZM0 883.172H664.681V875.172H0V883.172ZM664.681 883.172C675.49 883.172 685.182 887.93 691.787 895.48L697.808 890.213C689.749 881 677.893 875.172 664.681 875.172V883.172ZM690.798 48.7695V892.846H698.798V48.7695H690.798ZM664.798 22.7695C679.157 22.7695 690.798 34.4101 690.798 48.7695H698.798C698.798 29.9918 683.575 14.7695 664.798 14.7695V22.7695Z" fill="black" mask="url(#path-2-inside-1_1226_9106)"/>
<mask id="path-4-inside-2_1226_9106" fill="white">
<path fill-rule="evenodd" clip-rule="evenodd" d="M673.692 12.8418H8.89453V873.244H673.575C685.586 873.244 696.36 878.537 703.692 886.919V42.8418C703.692 26.2733 690.261 12.8418 673.692 12.8418Z"/>
</mask>
<path fill-rule="evenodd" clip-rule="evenodd" d="M673.692 12.8418H8.89453V873.244H673.575C685.586 873.244 696.36 878.537 703.692 886.919V42.8418C703.692 26.2733 690.261 12.8418 673.692 12.8418Z" fill="url(#paint1_linear_1226_9106)"/>
<path d="M8.89453 12.8418V10.8418C7.78996 10.8418 6.89453 11.7372 6.89453 12.8418H8.89453ZM8.89453 873.244H6.89453C6.89453 874.349 7.78996 875.244 8.89453 875.244V873.244ZM703.692 886.919L702.187 888.235C702.735 888.863 703.615 889.084 704.395 888.791C705.175 888.498 705.692 887.752 705.692 886.919H703.692ZM8.89453 14.8418H673.692V10.8418H8.89453V14.8418ZM10.8945 873.244V12.8418H6.89453V873.244H10.8945ZM8.89453 875.244H673.575V871.244H8.89453V875.244ZM673.575 875.244C684.985 875.244 695.218 880.27 702.187 888.235L705.197 885.602C697.502 876.805 686.187 871.244 673.575 871.244V875.244ZM701.692 42.8418V886.919H705.692V42.8418H701.692ZM673.692 14.8418C689.156 14.8418 701.692 27.3778 701.692 42.8418H705.692C705.692 25.1687 691.365 10.8418 673.692 10.8418V14.8418Z" fill="black" mask="url(#path-4-inside-2_1226_9106)"/>
<mask id="path-6-inside-3_1226_9106" fill="white">
<path fill-rule="evenodd" clip-rule="evenodd" d="M682.589 7.90234H17.791V868.304H682.472C694.482 868.304 705.257 873.598 712.589 881.979V37.9023C712.589 21.3338 699.157 7.90234 682.589 7.90234Z"/>
</mask>
<path fill-rule="evenodd" clip-rule="evenodd" d="M682.589 7.90234H17.791V868.304H682.472C694.482 868.304 705.257 873.598 712.589 881.979V37.9023C712.589 21.3338 699.157 7.90234 682.589 7.90234Z" fill="url(#paint2_linear_1226_9106)"/>
<path d="M17.791 7.90234V5.90234C16.6864 5.90234 15.791 6.79777 15.791 7.90234H17.791ZM17.791 868.304H15.791C15.791 869.409 16.6864 870.304 17.791 870.304V868.304ZM712.589 881.979L711.083 883.296C711.632 883.923 712.512 884.144 713.292 883.851C714.072 883.558 714.589 882.812 714.589 881.979H712.589ZM17.791 9.90234H682.589V5.90234H17.791V9.90234ZM19.791 868.304V7.90234H15.791V868.304H19.791ZM17.791 870.304H682.472V866.304H17.791V870.304ZM682.472 870.304C693.881 870.304 704.115 875.33 711.083 883.296L714.094 880.662C706.398 871.865 695.083 866.304 682.472 866.304V870.304ZM710.589 37.9023V881.979H714.589V37.9023H710.589ZM682.589 9.90234C698.053 9.90234 710.589 22.4384 710.589 37.9023H714.589C714.589 20.2292 700.262 5.90234 682.589 5.90234V9.90234Z" fill="black" mask="url(#path-6-inside-3_1226_9106)"/>
<mask id="path-8-inside-4_1226_9106" fill="white">
<path fill-rule="evenodd" clip-rule="evenodd" d="M690.495 0H28.6621V860.402H690.495C706.61 860.402 719.757 873.108 720.465 889.049H720.495V30C720.495 13.4315 707.063 0 690.495 0Z"/>
</mask>
<path fill-rule="evenodd" clip-rule="evenodd" d="M690.495 0H28.6621V860.402H690.495C706.61 860.402 719.757 873.108 720.465 889.049H720.495V30C720.495 13.4315 707.063 0 690.495 0Z" fill="white"/>
<path d="M28.6621 0V-2C27.5575 -2 26.6621 -1.10457 26.6621 0L28.6621 0ZM28.6621 860.402H26.6621C26.6621 861.507 27.5575 862.402 28.6621 862.402V860.402ZM720.465 889.049L718.467 889.137C718.514 890.206 719.395 891.049 720.465 891.049V889.049ZM720.495 889.049V891.049C721.599 891.049 722.495 890.153 722.495 889.049H720.495ZM28.6621 2H690.495V-2H28.6621V2ZM30.6621 860.402V0H26.6621V860.402H30.6621ZM28.6621 862.402H690.495V858.402H28.6621V862.402ZM690.495 862.402C705.535 862.402 717.806 874.261 718.467 889.137L722.463 888.96C721.708 871.955 707.684 858.402 690.495 858.402V862.402ZM720.495 887.049H720.465V891.049H720.495V887.049ZM718.495 30V889.049H722.495V30H718.495ZM690.495 2C705.959 2 718.495 14.536 718.495 30H722.495C722.495 12.3269 708.168 -2 690.495 -2V2Z" fill="black" mask="url(#path-8-inside-4_1226_9106)"/>
<mask id="path-10-inside-5_1226_9106" fill="white">
<path fill-rule="evenodd" clip-rule="evenodd" d="M690.495 49.3926H28.6621V814.195H690.495C705.521 814.195 717.967 825.242 720.154 839.658H720.495V79.3926C720.495 62.824 707.063 49.3926 690.495 49.3926Z"/>
</mask>
<path fill-rule="evenodd" clip-rule="evenodd" d="M690.495 49.3926H28.6621V814.195H690.495C705.521 814.195 717.967 825.242 720.154 839.658H720.495V79.3926C720.495 62.824 707.063 49.3926 690.495 49.3926Z" fill="white"/>
<path d="M28.6621 49.3926V47.3926C27.5575 47.3926 26.6621 48.288 26.6621 49.3926H28.6621ZM28.6621 814.195H26.6621C26.6621 815.299 27.5575 816.195 28.6621 816.195V814.195ZM720.154 839.658L718.176 839.958C718.325 840.936 719.165 841.658 720.154 841.658V839.658ZM720.495 839.658V841.658C721.599 841.658 722.495 840.763 722.495 839.658H720.495ZM28.6621 51.3926H690.495V47.3926H28.6621V51.3926ZM30.6621 814.195V49.3926H26.6621V814.195H30.6621ZM28.6621 816.195H690.495V812.195H28.6621V816.195ZM690.495 816.195C704.517 816.195 716.136 826.505 718.176 839.958L722.131 839.358C719.798 823.979 706.525 812.195 690.495 812.195V816.195ZM720.495 837.658H720.154V841.658H720.495V837.658ZM718.495 79.3926V839.658H722.495V79.3926H718.495ZM690.495 51.3926C705.959 51.3926 718.495 63.9286 718.495 79.3926H722.495C722.495 61.7195 708.168 47.3926 690.495 47.3926V51.3926Z" fill="black" mask="url(#path-10-inside-5_1226_9106)"/>
<mask id="path-12-inside-6_1226_9106" fill="white">
<path fill-rule="evenodd" clip-rule="evenodd" d="M690.495 167.934H28.6621V860.079H690.495C704.669 860.079 716.547 869.909 719.684 883.124H720.495V197.934C720.495 181.365 707.063 167.934 690.495 167.934Z"/>
</mask>
<path d="M28.6621 167.934V165.934C27.5575 165.934 26.6621 166.829 26.6621 167.934H28.6621ZM28.6621 860.079H26.6621C26.6621 861.184 27.5575 862.079 28.6621 862.079V860.079ZM719.684 883.124L717.738 883.586C717.952 884.487 718.758 885.124 719.684 885.124V883.124ZM720.495 883.124V885.124C721.599 885.124 722.495 884.228 722.495 883.124H720.495ZM28.6621 169.934H690.495V165.934H28.6621V169.934ZM30.6621 860.079V167.934H26.6621V860.079H30.6621ZM28.6621 862.079H690.495V858.079H28.6621V862.079ZM690.495 862.079C703.721 862.079 714.81 871.252 717.738 883.586L721.63 882.662C718.284 868.566 705.616 858.079 690.495 858.079V862.079ZM720.495 881.124H719.684V885.124H720.495V881.124ZM718.495 197.934V883.124H722.495V197.934H718.495ZM690.495 169.934C705.959 169.934 718.495 182.47 718.495 197.934H722.495C722.495 180.26 708.168 165.934 690.495 165.934V169.934Z" fill="black" mask="url(#path-12-inside-6_1226_9106)"/>
<line x1="79.0781" y1="1.97461" x2="79.0781" y2="860.401" stroke="black" stroke-width="2" stroke-linejoin="round"/>
<mask id="path-15-inside-7_1226_9106" fill="white">
<path fill-rule="evenodd" clip-rule="evenodd" d="M775.202 18.7695H1440V879.172H775.319C763.309 879.172 752.534 884.465 745.202 892.846V48.7695C745.202 32.201 758.634 18.7695 775.202 18.7695Z"/>
</mask>
<path fill-rule="evenodd" clip-rule="evenodd" d="M775.202 18.7695H1440V879.172H775.319C763.309 879.172 752.534 884.465 745.202 892.846V48.7695C745.202 32.201 758.634 18.7695 775.202 18.7695Z" fill="url(#paint3_linear_1226_9106)"/>
<path d="M1440 18.7695V14.7695C1442.21 14.7695 1444 16.5604 1444 18.7695H1440ZM1440 879.172H1444C1444 881.381 1442.21 883.172 1440 883.172V879.172ZM745.202 892.846L748.213 895.48C747.116 896.734 745.356 897.177 743.796 896.591C742.236 896.005 741.202 894.513 741.202 892.846H745.202ZM1440 22.7695H775.202V14.7695H1440V22.7695ZM1436 879.172V18.7695H1444V879.172H1436ZM1440 883.172H775.319V875.172H1440V883.172ZM775.319 883.172C764.51 883.172 754.818 887.93 748.213 895.48L742.192 890.213C750.251 881 762.107 875.172 775.319 875.172V883.172ZM749.202 48.7695V892.846H741.202V48.7695H749.202ZM775.202 22.7695C760.843 22.7695 749.202 34.4101 749.202 48.7695H741.202C741.202 29.9918 756.425 14.7695 775.202 14.7695V22.7695Z" fill="black" mask="url(#path-15-inside-7_1226_9106)"/>
<mask id="path-17-inside-8_1226_9106" fill="white">
<path fill-rule="evenodd" clip-rule="evenodd" d="M766.306 12.8418H1431.1V873.244H766.423C754.412 873.244 743.638 878.537 736.306 886.919V42.8418C736.306 26.2733 749.737 12.8418 766.306 12.8418Z"/>
</mask>
<path fill-rule="evenodd" clip-rule="evenodd" d="M766.306 12.8418H1431.1V873.244H766.423C754.412 873.244 743.638 878.537 736.306 886.919V42.8418C736.306 26.2733 749.737 12.8418 766.306 12.8418Z" fill="url(#paint4_linear_1226_9106)"/>
<path d="M1431.1 12.8418V10.8418C1432.21 10.8418 1433.1 11.7372 1433.1 12.8418H1431.1ZM1431.1 873.244H1433.1C1433.1 874.349 1432.21 875.244 1431.1 875.244V873.244ZM736.306 886.919L737.811 888.235C737.263 888.863 736.383 889.084 735.603 888.791C734.823 888.498 734.306 887.752 734.306 886.919H736.306ZM1431.1 14.8418H766.306V10.8418H1431.1V14.8418ZM1429.1 873.244V12.8418H1433.1V873.244H1429.1ZM1431.1 875.244H766.423V871.244H1431.1V875.244ZM766.423 875.244C755.013 875.244 744.78 880.27 737.811 888.235L734.801 885.602C742.496 876.805 753.811 871.244 766.423 871.244V875.244ZM738.306 42.8418V886.919H734.306V42.8418H738.306ZM766.306 14.8418C750.842 14.8418 738.306 27.3778 738.306 42.8418H734.306C734.306 25.1687 748.633 10.8418 766.306 10.8418V14.8418Z" fill="black" mask="url(#path-17-inside-8_1226_9106)"/>
<mask id="path-19-inside-9_1226_9106" fill="white">
<path fill-rule="evenodd" clip-rule="evenodd" d="M757.411 7.90234H1422.21V868.304H757.528C745.518 868.304 734.743 873.598 727.411 881.979V37.9023C727.411 21.3338 740.843 7.90234 757.411 7.90234Z"/>
</mask>
<path fill-rule="evenodd" clip-rule="evenodd" d="M757.411 7.90234H1422.21V868.304H757.528C745.518 868.304 734.743 873.598 727.411 881.979V37.9023C727.411 21.3338 740.843 7.90234 757.411 7.90234Z" fill="url(#paint5_linear_1226_9106)"/>
<path d="M1422.21 7.90234V5.90234C1423.31 5.90234 1424.21 6.79777 1424.21 7.90234H1422.21ZM1422.21 868.304H1424.21C1424.21 869.409 1423.31 870.304 1422.21 870.304V868.304ZM727.411 881.979L728.917 883.296C728.368 883.923 727.488 884.144 726.708 883.851C725.928 883.558 725.411 882.812 725.411 881.979H727.411ZM1422.21 9.90234H757.411V5.90234H1422.21V9.90234ZM1420.21 868.304V7.90234H1424.21V868.304H1420.21ZM1422.21 870.304H757.528V866.304H1422.21V870.304ZM757.528 870.304C746.119 870.304 735.885 875.33 728.917 883.296L725.906 880.662C733.602 871.865 744.917 866.304 757.528 866.304V870.304ZM729.411 37.9023V881.979H725.411V37.9023H729.411ZM757.411 9.90234C741.947 9.90234 729.411 22.4384 729.411 37.9023H725.411C725.411 20.2292 739.738 5.90234 757.411 5.90234V9.90234Z" fill="black" mask="url(#path-19-inside-9_1226_9106)"/>
<mask id="path-21-inside-10_1226_9106" fill="white">
<path fill-rule="evenodd" clip-rule="evenodd" d="M749.505 0H1411.34V860.402H749.505C733.39 860.402 720.243 873.108 719.535 889.049H719.505V30C719.505 13.4315 732.937 0 749.505 0Z"/>
</mask>
<path fill-rule="evenodd" clip-rule="evenodd" d="M749.505 0H1411.34V860.402H749.505C733.39 860.402 720.243 873.108 719.535 889.049H719.505V30C719.505 13.4315 732.937 0 749.505 0Z" fill="white"/>
<path d="M1411.34 0V-2C1412.44 -2 1413.34 -1.10457 1413.34 0L1411.34 0ZM1411.34 860.402H1413.34C1413.34 861.507 1412.44 862.402 1411.34 862.402V860.402ZM719.535 889.049L721.533 889.137C721.486 890.206 720.605 891.049 719.535 891.049V889.049ZM719.505 889.049V891.049C718.401 891.049 717.505 890.153 717.505 889.049H719.505ZM1411.34 2H749.505V-2H1411.34V2ZM1409.34 860.402V0H1413.34V860.402H1409.34ZM1411.34 862.402H749.505V858.402H1411.34V862.402ZM749.505 862.402C734.465 862.402 722.194 874.261 721.533 889.137L717.537 888.96C718.292 871.955 732.316 858.402 749.505 858.402V862.402ZM719.505 887.049H719.535V891.049H719.505V887.049ZM721.505 30V889.049H717.505V30H721.505ZM749.505 2C734.041 2 721.505 14.536 721.505 30H717.505C717.505 12.3269 731.832 -2 749.505 -2V2Z" fill="black" mask="url(#path-21-inside-10_1226_9106)"/>
<mask id="path-23-inside-11_1226_9106" fill="white">
<path fill-rule="evenodd" clip-rule="evenodd" d="M749.505 167.934H1411.34V860.079H749.505C735.331 860.079 723.453 869.909 720.316 883.124H719.505V197.934C719.505 181.365 732.937 167.934 749.505 167.934Z"/>
</mask>
<path d="M1411.34 167.934V165.934C1412.44 165.934 1413.34 166.829 1413.34 167.934H1411.34ZM1411.34 860.079H1413.34C1413.34 861.184 1412.44 862.079 1411.34 862.079V860.079ZM720.316 883.124L722.262 883.586C722.048 884.487 721.242 885.124 720.316 885.124V883.124ZM719.505 883.124V885.124C718.401 885.124 717.505 884.228 717.505 883.124H719.505ZM1411.34 169.934H749.505V165.934H1411.34V169.934ZM1409.34 860.079V167.934H1413.34V860.079H1409.34ZM1411.34 862.079H749.505V858.079H1411.34V862.079ZM749.505 862.079C736.279 862.079 725.19 871.252 722.262 883.586L718.37 882.662C721.716 868.566 734.384 858.079 749.505 858.079V862.079ZM719.505 881.124H720.316V885.124H719.505V881.124ZM721.505 197.934V883.124H717.505V197.934H721.505ZM749.505 169.934C734.041 169.934 721.505 182.47 721.505 197.934H717.505C717.505 180.26 731.832 165.934 749.505 165.934V169.934Z" fill="black" mask="url(#path-23-inside-11_1226_9106)"/>
<line y1="-1" x2="858.426" y2="-1" transform="matrix(0 1 1 0 1359.95 1.97461)" stroke="black" stroke-width="2" stroke-linejoin="round"/>
<path d="M134.955 126.016V140.234H132.279V126.016H134.955ZM139.369 126.016V128.135H127.914V126.016H139.369ZM144.018 126.016V140.234H141.332V126.016H144.018ZM152.729 126.016V140.234H150.053V126.016H152.729ZM157.143 126.016V128.135H145.688V126.016H157.143ZM167.953 138.125V140.234H160.805V138.125H167.953ZM161.615 126.016V140.234H158.93V126.016H161.615ZM179.174 138.125V140.234H171.615V138.125H179.174ZM172.436 126.016V140.234H169.75V126.016H172.436ZM178.188 131.885V133.945H171.615V131.885H178.188ZM179.145 126.016V128.135H171.615V126.016H179.145ZM180.902 138.975C180.902 138.584 181.036 138.255 181.303 137.988C181.57 137.721 181.931 137.588 182.387 137.588C182.842 137.588 183.204 137.721 183.471 137.988C183.738 138.255 183.871 138.584 183.871 138.975C183.871 139.359 183.738 139.684 183.471 139.951C183.204 140.212 182.842 140.342 182.387 140.342C181.931 140.342 181.57 140.212 181.303 139.951C181.036 139.684 180.902 139.359 180.902 138.975ZM180.912 130.781C180.912 130.391 181.046 130.062 181.312 129.795C181.579 129.528 181.941 129.395 182.396 129.395C182.852 129.395 183.214 129.528 183.48 129.795C183.747 130.062 183.881 130.391 183.881 130.781C183.881 131.165 183.747 131.491 183.48 131.758C183.214 132.018 182.852 132.148 182.396 132.148C181.941 132.148 181.579 132.018 181.312 131.758C181.046 131.491 180.912 131.165 180.912 130.781Z" fill="black"/>
<path d="M207.118 139.544C206.773 139.594 206.538 139.606 206.415 139.581C206.292 139.557 206.168 139.409 206.045 139.137L205.194 136.51C205.071 136.14 205.071 135.894 205.194 135.77C205.342 135.672 205.564 135.598 205.86 135.548C206.97 135.4 208.191 135.203 209.523 134.956C210.88 134.71 212.224 134.438 213.556 134.142C214.913 133.822 216.245 133.464 217.552 133.069C218.859 132.675 220.019 132.255 221.03 131.811C221.4 131.639 221.61 131.491 221.659 131.367C221.708 131.244 221.486 131.182 220.993 131.182H208.524C208.105 131.182 207.895 130.948 207.895 130.479V127.963C207.895 127.692 207.932 127.519 208.006 127.445C208.08 127.347 208.253 127.297 208.524 127.297H226.506C227.69 127.297 228.541 127.482 229.059 127.852C229.577 128.222 229.836 128.728 229.836 129.369C229.836 130.159 229.441 130.948 228.652 131.737C227.887 132.502 226.814 133.267 225.433 134.031C226.691 134.377 227.974 134.66 229.281 134.882C230.588 135.129 231.785 135.326 232.87 135.474C233.141 135.524 233.302 135.61 233.351 135.733C233.4 135.881 233.388 136.066 233.314 136.288L232.426 138.841C232.352 139.063 232.253 139.199 232.13 139.248C232.007 139.322 231.797 139.335 231.501 139.285C230.761 139.187 229.91 139.051 228.948 138.878C228.011 138.706 227.024 138.496 225.988 138.249C224.952 138.027 223.891 137.768 222.806 137.472C221.745 137.201 220.709 136.893 219.698 136.547C217.848 137.189 215.85 137.768 213.704 138.286C211.558 138.804 209.363 139.224 207.118 139.544ZM234.683 120.637H202.937C202.592 120.637 202.382 120.576 202.308 120.452C202.234 120.329 202.197 120.132 202.197 119.86V117.307C202.197 117.011 202.246 116.814 202.345 116.715C202.444 116.592 202.641 116.53 202.937 116.53H216.738V111.868C216.738 111.597 216.787 111.412 216.886 111.313C216.985 111.215 217.182 111.165 217.478 111.165H221.104C221.4 111.165 221.597 111.215 221.696 111.313C221.819 111.412 221.881 111.597 221.881 111.868V116.53H234.683C234.905 116.53 235.09 116.592 235.238 116.715C235.386 116.814 235.46 117.011 235.46 117.307V119.897C235.46 120.193 235.398 120.391 235.275 120.489C235.152 120.588 234.954 120.637 234.683 120.637ZM230.465 114.273C230.366 114.619 230.255 114.841 230.132 114.939C230.009 115.038 229.811 115.063 229.54 115.013L226.247 114.68C225.976 114.631 225.791 114.557 225.692 114.458C225.618 114.335 225.606 114.125 225.655 113.829C225.729 113.41 225.803 112.954 225.877 112.46C225.951 111.942 226.013 111.437 226.062 110.943C226.136 110.425 226.185 109.932 226.21 109.463C226.259 108.995 226.284 108.575 226.284 108.205C226.284 107.835 226.074 107.65 225.655 107.65H218.995C218.798 107.65 218.613 107.626 218.44 107.576C218.292 107.502 218.218 107.305 218.218 106.984V104.283C218.218 103.938 218.292 103.741 218.44 103.691C218.613 103.642 218.798 103.617 218.995 103.617H228.615C229.429 103.617 230.07 103.79 230.539 104.135C231.032 104.481 231.279 105.159 231.279 106.17C231.279 106.738 231.254 107.404 231.205 108.168C231.156 108.933 231.094 109.698 231.02 110.462C230.946 111.202 230.86 111.918 230.761 112.608C230.662 113.299 230.564 113.854 230.465 114.273ZM214.185 114.791C213.963 115.112 213.778 115.285 213.63 115.309C213.507 115.334 213.309 115.285 213.038 115.161L210.3 113.755C210.029 113.607 209.881 113.459 209.856 113.311C209.831 113.163 209.918 112.941 210.115 112.645C211.102 111.19 211.718 109.698 211.965 108.168C212.014 107.823 211.829 107.65 211.41 107.65H206.193C205.996 107.65 205.811 107.626 205.638 107.576C205.465 107.502 205.379 107.305 205.379 106.984V104.283C205.379 103.938 205.465 103.741 205.638 103.691C205.811 103.642 205.996 103.617 206.193 103.617H214.481C215.27 103.617 215.899 103.79 216.368 104.135C216.861 104.481 217.108 105.159 217.108 106.17C217.108 107.601 216.837 109.081 216.294 110.61C215.776 112.14 215.073 113.533 214.185 114.791ZM224.249 125.928H213.408C213.211 125.928 213.038 125.891 212.89 125.817C212.767 125.743 212.705 125.534 212.705 125.188V122.746C212.705 122.475 212.767 122.302 212.89 122.228C213.038 122.13 213.211 122.08 213.408 122.08H224.249C224.718 122.08 224.952 122.315 224.952 122.783V125.151C224.952 125.669 224.718 125.928 224.249 125.928ZM253.606 115.679C251.707 115.679 250.029 115.519 248.574 115.198C247.119 114.878 245.885 114.434 244.874 113.866C243.887 113.274 243.135 112.596 242.617 111.831C242.099 111.042 241.84 110.191 241.84 109.278C241.84 108.366 242.099 107.527 242.617 106.762C243.135 105.973 243.887 105.295 244.874 104.727C245.885 104.16 247.119 103.716 248.574 103.395C250.029 103.075 251.707 102.914 253.606 102.914C255.431 102.914 257.072 103.075 258.527 103.395C259.982 103.716 261.216 104.16 262.227 104.727C263.238 105.295 264.015 105.973 264.558 106.762C265.101 107.527 265.372 108.366 265.372 109.278C265.372 110.191 265.101 111.042 264.558 111.831C264.015 112.596 263.238 113.274 262.227 113.866C261.216 114.434 259.982 114.878 258.527 115.198C257.072 115.519 255.431 115.679 253.606 115.679ZM269.479 121.229H237.733C237.388 121.229 237.178 121.168 237.104 121.044C237.03 120.921 236.993 120.724 236.993 120.452V117.936C236.993 117.665 237.042 117.468 237.141 117.344C237.24 117.221 237.437 117.159 237.733 117.159H269.479C269.701 117.159 269.886 117.221 270.034 117.344C270.182 117.443 270.256 117.64 270.256 117.936V120.452C270.256 120.97 269.997 121.229 269.479 121.229ZM265.298 138.545H244.615C244.072 138.545 243.628 138.508 243.283 138.434C242.962 138.36 242.716 138.225 242.543 138.027C242.37 137.855 242.247 137.608 242.173 137.287C242.124 136.991 242.099 136.621 242.099 136.177V131.219C242.099 130.751 242.124 130.368 242.173 130.072C242.247 129.776 242.37 129.542 242.543 129.369C242.716 129.197 242.962 129.073 243.283 128.999C243.604 128.925 244.035 128.888 244.578 128.888H259.711C259.933 128.888 260.044 128.753 260.044 128.481V127.482C260.044 127.186 259.921 127.038 259.674 127.038H242.765C242.494 127.038 242.296 126.989 242.173 126.89C242.074 126.792 242.025 126.594 242.025 126.298V123.819C242.025 123.351 242.272 123.116 242.765 123.116H262.523C263.066 123.116 263.51 123.153 263.855 123.227C264.2 123.301 264.459 123.437 264.632 123.634C264.805 123.807 264.916 124.041 264.965 124.337C265.039 124.633 265.076 125.003 265.076 125.447V130.257C265.076 130.751 265.039 131.158 264.965 131.478C264.916 131.774 264.805 132.009 264.632 132.181C264.459 132.354 264.2 132.477 263.855 132.551C263.51 132.601 263.066 132.625 262.523 132.625H247.538C247.291 132.625 247.168 132.749 247.168 132.995V134.216C247.168 134.488 247.304 134.623 247.575 134.623H265.261C265.532 134.623 265.73 134.66 265.853 134.734C265.976 134.808 266.038 135.006 266.038 135.326V137.805C266.038 138.299 265.791 138.545 265.298 138.545ZM253.606 106.799C252.496 106.799 251.522 106.873 250.683 107.021C249.869 107.169 249.178 107.367 248.611 107.613C248.068 107.86 247.661 108.131 247.39 108.427C247.119 108.699 246.983 108.982 246.983 109.278C246.983 109.87 247.526 110.438 248.611 110.98C249.721 111.498 251.386 111.757 253.606 111.757C255.826 111.757 257.479 111.498 258.564 110.98C259.674 110.438 260.229 109.87 260.229 109.278C260.229 108.982 260.093 108.699 259.822 108.427C259.551 108.131 259.131 107.86 258.564 107.613C258.021 107.367 257.331 107.169 256.492 107.021C255.678 106.873 254.716 106.799 253.606 106.799ZM314.682 132.662H282.899C282.578 132.662 282.369 132.588 282.27 132.44C282.196 132.292 282.159 132.107 282.159 131.885V129.221C282.159 128.95 282.196 128.753 282.27 128.629C282.369 128.506 282.578 128.444 282.899 128.444H296.219V122.413H289.707C289.115 122.413 288.634 122.376 288.264 122.302C287.894 122.228 287.598 122.093 287.376 121.895C287.179 121.698 287.043 121.427 286.969 121.081C286.895 120.736 286.858 120.292 286.858 119.749V105.504C286.858 105.036 287.08 104.801 287.524 104.801H291.224C291.717 104.801 291.964 105.036 291.964 105.504V109.759H305.58V105.467C305.58 104.974 305.814 104.727 306.283 104.727H309.983C310.452 104.727 310.686 104.974 310.686 105.467V119.86C310.686 120.798 310.501 121.464 310.131 121.858C309.761 122.228 309.009 122.413 307.874 122.413H301.362V128.444H314.682C315.2 128.444 315.459 128.703 315.459 129.221V131.885C315.459 132.403 315.2 132.662 314.682 132.662ZM305.58 113.977H291.964V117.64C291.964 118.01 292.149 118.195 292.519 118.195H305.025C305.395 118.195 305.58 118.01 305.58 117.64V113.977ZM344.631 116.493H325.058C323.973 116.493 323.196 116.247 322.727 115.753C322.283 115.235 322.061 114.495 322.061 113.533V106.355C322.061 105.295 322.271 104.604 322.69 104.283C323.134 103.938 323.874 103.765 324.91 103.765H344.446C344.915 103.765 345.149 104 345.149 104.468V107.206C345.149 107.478 345.1 107.663 345.001 107.761C344.902 107.86 344.717 107.909 344.446 107.909H327.833C327.438 107.909 327.241 108.107 327.241 108.501V111.794C327.241 112.189 327.438 112.386 327.833 112.386H344.631C345.174 112.386 345.445 112.596 345.445 113.015V115.716C345.445 116.234 345.174 116.493 344.631 116.493ZM321.839 139.063C321.494 139.162 321.259 139.187 321.136 139.137C321.037 139.088 320.951 138.965 320.877 138.767L319.619 135.733C319.446 135.339 319.631 135.067 320.174 134.919C323.455 134.007 326.02 132.847 327.87 131.441C329.745 130.035 330.793 128.185 331.015 125.891C331.015 125.768 331.089 125.645 331.237 125.521C331.385 125.398 331.558 125.336 331.755 125.336L335.492 125.373C335.911 125.373 336.084 125.682 336.01 126.298C335.961 126.52 335.924 126.742 335.899 126.964C335.874 127.186 335.837 127.396 335.788 127.593C336.183 128.605 336.787 129.493 337.601 130.257C338.44 130.997 339.377 131.651 340.413 132.218C341.449 132.761 342.547 133.217 343.706 133.587C344.865 133.933 345.963 134.216 346.999 134.438C347.344 134.512 347.529 134.611 347.554 134.734C347.603 134.882 347.579 135.08 347.48 135.326L346.259 138.397C346.111 138.767 345.741 138.878 345.149 138.73C344.138 138.508 343.077 138.212 341.967 137.842C340.882 137.497 339.821 137.053 338.785 136.51C337.774 135.992 336.812 135.388 335.899 134.697C335.011 134.007 334.246 133.23 333.605 132.366C332.372 133.945 330.756 135.277 328.758 136.362C326.76 137.472 324.454 138.373 321.839 139.063ZM349.441 123.264H317.695C317.35 123.264 317.14 123.203 317.066 123.079C316.992 122.956 316.955 122.759 316.955 122.487V119.823C316.955 119.552 317.004 119.367 317.103 119.268C317.202 119.145 317.399 119.083 317.695 119.083H349.441C349.663 119.083 349.848 119.133 349.996 119.231C350.144 119.33 350.218 119.527 350.218 119.823V122.487C350.218 123.005 349.959 123.264 349.441 123.264ZM391.98 138.693H388.206C387.935 138.693 387.75 138.644 387.651 138.545C387.552 138.471 387.503 138.286 387.503 137.99V117.455H378.734C378.512 117.455 378.339 117.418 378.216 117.344C378.093 117.246 378.031 117.061 378.031 116.789V113.94C378.031 113.644 378.093 113.459 378.216 113.385C378.339 113.287 378.512 113.237 378.734 113.237H387.503V103.913C387.503 103.642 387.552 103.457 387.651 103.358C387.75 103.26 387.935 103.21 388.206 103.21H391.98C392.251 103.21 392.424 103.26 392.498 103.358C392.597 103.457 392.646 103.642 392.646 103.913V137.99C392.646 138.286 392.597 138.471 392.498 138.545C392.424 138.644 392.251 138.693 391.98 138.693ZM384.173 127.556C382.94 127.852 381.583 128.099 380.103 128.296C378.648 128.494 377.192 128.642 375.737 128.74C374.282 128.839 372.876 128.901 371.519 128.925C370.187 128.925 369.04 128.888 368.078 128.814C367.042 128.74 366.314 128.506 365.895 128.111C365.476 127.717 365.266 127.051 365.266 126.113V105.985C365.266 105.492 365.5 105.245 365.969 105.245H369.632C370.15 105.245 370.409 105.492 370.409 105.985V123.745C370.409 123.992 370.446 124.165 370.52 124.263C370.594 124.337 370.779 124.387 371.075 124.411C371.914 124.461 372.863 124.473 373.924 124.448C374.985 124.424 376.07 124.362 377.18 124.263C378.315 124.165 379.412 124.041 380.473 123.893C381.558 123.745 382.545 123.573 383.433 123.375C383.729 123.301 383.926 123.314 384.025 123.412C384.124 123.511 384.185 123.622 384.21 123.745L384.765 126.853C384.839 127.223 384.642 127.458 384.173 127.556ZM429.403 122.635H397.657C397.312 122.635 397.102 122.574 397.028 122.45C396.954 122.327 396.917 122.13 396.917 121.858V119.453C396.917 119.182 396.966 118.997 397.065 118.898C397.164 118.775 397.361 118.713 397.657 118.713H429.403C429.625 118.713 429.81 118.763 429.958 118.861C430.106 118.96 430.18 119.157 430.18 119.453V121.858C430.18 122.376 429.921 122.635 429.403 122.635ZM425.074 117.048H404.761C403.676 117.048 402.948 116.851 402.578 116.456C402.233 116.062 402.06 115.396 402.06 114.458V110.647C402.06 110.179 402.097 109.796 402.171 109.5C402.245 109.18 402.368 108.933 402.541 108.76C402.738 108.563 402.997 108.427 403.318 108.353C403.663 108.255 404.107 108.205 404.65 108.205H419.709C419.931 108.205 420.042 108.07 420.042 107.798V107.132C420.042 106.836 419.919 106.688 419.672 106.688H402.985C402.492 106.688 402.245 106.442 402.245 105.948V103.654C402.245 103.186 402.492 102.951 402.985 102.951H422.41C422.953 102.951 423.397 102.988 423.742 103.062C424.112 103.136 424.383 103.272 424.556 103.469C424.753 103.642 424.889 103.889 424.963 104.209C425.037 104.505 425.074 104.9 425.074 105.393V109.278C425.074 109.772 425.037 110.179 424.963 110.499C424.889 110.82 424.753 111.079 424.556 111.276C424.383 111.449 424.112 111.572 423.742 111.646C423.397 111.72 422.953 111.757 422.41 111.757H407.499C407.252 111.757 407.129 111.881 407.129 112.127V112.904C407.129 113.176 407.265 113.311 407.536 113.311H425.037C425.308 113.311 425.506 113.348 425.629 113.422C425.752 113.496 425.814 113.694 425.814 114.014V116.308C425.814 116.802 425.567 117.048 425.074 117.048ZM425.222 138.693H404.576C404.033 138.693 403.589 138.644 403.244 138.545C402.923 138.471 402.664 138.336 402.467 138.138C402.294 137.966 402.171 137.719 402.097 137.398C402.048 137.102 402.023 136.732 402.023 136.288V132.07C402.023 131.602 402.048 131.219 402.097 130.923C402.171 130.627 402.294 130.393 402.467 130.22C402.664 130.023 402.923 129.887 403.244 129.813C403.565 129.739 403.996 129.702 404.539 129.702H419.635C419.857 129.702 419.968 129.567 419.968 129.295V128.666C419.968 128.37 419.845 128.222 419.598 128.222H402.689C402.418 128.222 402.22 128.173 402.097 128.074C401.998 127.976 401.949 127.778 401.949 127.482V125.151C401.949 124.683 402.196 124.448 402.689 124.448H422.373C423.483 124.448 424.198 124.633 424.519 125.003C424.84 125.349 425 125.965 425 126.853V130.923C425 131.417 424.963 131.824 424.889 132.144C424.84 132.44 424.729 132.675 424.556 132.847C424.383 133.02 424.124 133.143 423.779 133.217C423.434 133.267 422.99 133.291 422.447 133.291H407.462C407.215 133.291 407.092 133.415 407.092 133.661V134.512C407.092 134.784 407.228 134.919 407.499 134.919H425.185C425.456 134.919 425.654 134.956 425.777 135.03C425.9 135.104 425.962 135.302 425.962 135.622V137.953C425.962 138.447 425.715 138.693 425.222 138.693ZM474.569 125.669H442.823C442.478 125.669 442.268 125.608 442.194 125.484C442.12 125.361 442.083 125.151 442.083 124.855V122.191C442.083 121.92 442.132 121.735 442.231 121.636C442.33 121.513 442.527 121.451 442.823 121.451H456.143V118.565H450.001C449.409 118.565 448.928 118.528 448.558 118.454C448.188 118.38 447.892 118.257 447.67 118.084C447.473 117.887 447.337 117.616 447.263 117.27C447.189 116.925 447.152 116.469 447.152 115.901V104.727C447.152 104.259 447.374 104.024 447.818 104.024H451.518C451.765 104.024 451.95 104.074 452.073 104.172C452.221 104.271 452.295 104.456 452.295 104.727V107.354H465.097V104.69C465.097 104.197 465.344 103.95 465.837 103.95H469.537C470.006 103.95 470.24 104.197 470.24 104.69V116.012C470.24 116.974 470.055 117.64 469.685 118.01C469.315 118.38 468.563 118.565 467.428 118.565H461.286V121.451H474.569C474.791 121.451 474.976 121.501 475.124 121.599C475.272 121.698 475.346 121.895 475.346 122.191V124.855C475.346 125.398 475.087 125.669 474.569 125.669ZM470.573 138.101H449.779C449.261 138.101 448.829 138.052 448.484 137.953C448.163 137.879 447.904 137.744 447.707 137.546C447.534 137.349 447.411 137.078 447.337 136.732C447.263 136.387 447.226 135.955 447.226 135.437V128.37C447.226 127.852 447.473 127.593 447.966 127.593H451.592C452.11 127.593 452.369 127.852 452.369 128.37V133.328C452.369 133.698 452.554 133.883 452.924 133.883H470.573C470.77 133.883 470.943 133.933 471.091 134.031C471.264 134.105 471.35 134.278 471.35 134.549V137.435C471.35 137.781 471.264 137.978 471.091 138.027C470.943 138.077 470.77 138.101 470.573 138.101ZM465.097 111.498H452.295V113.866C452.295 114.236 452.468 114.421 452.813 114.421H464.579C464.924 114.421 465.097 114.236 465.097 113.866V111.498ZM509.957 120.748H505.369V137.99C505.369 138.286 505.319 138.471 505.221 138.545C505.147 138.644 504.974 138.693 504.703 138.693H500.966C500.694 138.693 500.497 138.644 500.374 138.545C500.275 138.471 500.226 138.286 500.226 137.99V103.913C500.226 103.642 500.275 103.457 500.374 103.358C500.497 103.26 500.694 103.21 500.966 103.21H504.703C504.974 103.21 505.147 103.26 505.221 103.358C505.319 103.457 505.369 103.642 505.369 103.913V116.53H509.957C510.179 116.53 510.351 116.567 510.475 116.641C510.623 116.691 510.697 116.888 510.697 117.233V120.045C510.697 120.341 510.623 120.539 510.475 120.637C510.351 120.711 510.179 120.748 509.957 120.748ZM497.71 127.408C496.674 127.655 495.465 127.877 494.084 128.074C492.702 128.247 491.272 128.395 489.792 128.518C488.336 128.617 486.906 128.679 485.5 128.703C484.118 128.728 482.897 128.716 481.837 128.666C480.949 128.642 480.283 128.481 479.839 128.185C479.419 127.889 479.21 127.223 479.21 126.187V108.353C479.21 107.367 479.37 106.725 479.691 106.429C480.036 106.133 480.714 105.985 481.726 105.985H495.083C495.354 105.985 495.539 106.035 495.638 106.133C495.761 106.207 495.823 106.38 495.823 106.651V109.574C495.823 109.846 495.761 110.018 495.638 110.092C495.539 110.166 495.354 110.203 495.083 110.203H484.871C484.624 110.203 484.476 110.253 484.427 110.351C484.377 110.45 484.353 110.573 484.353 110.721V123.782C484.353 124.177 484.55 124.374 484.945 124.374C485.833 124.399 486.782 124.399 487.794 124.374C488.805 124.35 489.841 124.3 490.902 124.226C491.962 124.128 493.023 124.017 494.084 123.893C495.144 123.745 496.156 123.585 497.118 123.412C497.389 123.363 497.574 123.388 497.673 123.486C497.771 123.56 497.845 123.696 497.895 123.893L498.339 126.594C498.388 126.866 498.363 127.051 498.265 127.149C498.166 127.248 497.981 127.334 497.71 127.408Z" fill="black"/>
<path d="M153.949 723.15H160.879V725.18C160.879 735.54 156.679 744.85 146.529 748.63L142.259 741.77C150.449 738.76 153.949 732.11 153.949 725.18V723.15ZM155.839 723.15H162.699V725.18C162.699 731.69 166.269 737.92 174.389 740.72L170.259 747.58C160.039 744.08 155.839 735.12 155.839 725.18V723.15ZM144.079 717.69H172.499V724.97H144.079V717.69ZM153.949 711.04H162.699V721.05H153.949V711.04ZM188.739 710.48H197.559V750.17H188.739V710.48ZM180.969 726.65H191.259V734.07H180.969V726.65ZM175.229 711.46H183.909V749.89H175.229V711.46ZM153.039 752.9H197.559V775.23H188.319V760.32H153.039V752.9ZM224.087 741.84H282.747V749.26H224.087V741.84ZM248.657 733.44H257.897V745.06H248.657V733.44ZM248.517 711.53H256.497V713.49C256.497 725.46 246.977 734.84 230.457 737.22L227.027 729.94C241.587 728.19 248.517 720.77 248.517 713.49V711.53ZM250.057 711.53H258.037V713.49C258.037 721.05 264.827 728.19 279.527 729.94L276.097 737.22C259.577 734.77 250.057 725.74 250.057 713.49V711.53ZM230.597 753.81H275.607V775.23H266.297V761.09H230.597V753.81ZM314.382 734.28H325.022V741.77H314.382V734.28ZM335.312 710.41H344.202V775.23H335.312V710.41ZM322.082 711.39H330.832V772.29H322.082V711.39ZM303.042 714.96C311.652 714.96 317.182 723.85 317.182 738.48C317.182 753.18 311.652 762.07 303.042 762.07C294.502 762.07 289.042 753.18 289.042 738.48C289.042 723.85 294.502 714.96 303.042 714.96ZM303.042 723.71C299.542 723.71 297.512 728.61 297.512 738.48C297.512 748.42 299.542 753.25 303.042 753.25C306.682 753.25 308.712 748.42 308.712 738.48C308.712 728.61 306.682 723.71 303.042 723.71ZM385.566 730.64H402.646V738.13H385.566V730.64ZM367.926 715.38H375.486V724.76C375.486 741.07 369.956 756.12 357.776 762.21L351.966 754.72C363.026 749.61 367.926 737.08 367.926 724.76V715.38ZM369.886 715.38H377.306V724.76C377.306 737.08 381.996 748.91 392.706 753.67L387.176 761.09C374.996 755.21 369.886 740.93 369.886 724.76V715.38ZM398.026 710.34H407.266V775.37H398.026V710.34Z" fill="black"/>
<line x1="396.32" y1="613.432" x2="613.753" y2="613.432" stroke="black" stroke-width="2"/>
<path d="M413.864 570.425H417.776V573.041H413.864V570.425ZM411.488 562.001H414.704V584.225H411.488V562.001ZM397.952 564.137H401.144V577.937H397.952V564.137ZM397.952 576.161H399.872C403.04 576.161 406.472 575.945 410.048 575.225L410.384 577.841C406.712 578.609 403.136 578.801 399.872 578.801H397.952V576.161ZM420.102 576.545H421.662C424.902 576.545 426.966 576.497 429.462 576.113L429.726 578.705C427.182 579.137 424.974 579.185 421.662 579.185H420.102V576.545ZM420.102 564.329H429.078V566.873H423.126V577.601H420.102V564.329ZM422.262 570.137H428.646V572.609H422.262V570.137ZM435.414 562.025H438.462V584.249H435.414V562.025ZM432.75 570.617H436.422V573.185H432.75V570.617ZM430.614 562.361H433.614V583.241H430.614V562.361ZM449.669 564.497H452.429V565.145C452.429 569.057 449.237 572.249 443.597 573.017L442.421 570.521C447.317 569.921 449.669 567.425 449.669 565.145V564.497ZM450.581 564.497H453.341V565.145C453.341 567.425 455.693 569.921 460.589 570.521L459.437 573.017C453.773 572.249 450.581 569.057 450.581 565.145V564.497ZM449.837 576.113H453.005V584.273H449.837V576.113ZM441.461 574.289H461.549V576.833H441.461V574.289ZM443.237 563.153H459.725V565.673H443.237V563.153Z" fill="black"/>
<path d="M405.508 592.11L401.271 603.773H399.54L404.418 590.977H405.534L405.508 592.11ZM409.059 603.773L404.813 592.11L404.787 590.977H405.903L410.799 603.773H409.059ZM408.839 599.036V600.425H401.649V599.036H408.839ZM417.979 601.576V594.264H419.614V603.773H418.059L417.979 601.576ZM418.287 599.572L418.964 599.555C418.964 600.188 418.896 600.773 418.762 601.312C418.633 601.846 418.422 602.309 418.129 602.701C417.836 603.094 417.452 603.401 416.978 603.624C416.503 603.841 415.926 603.949 415.246 603.949C414.783 603.949 414.358 603.882 413.972 603.747C413.591 603.612 413.263 603.404 412.987 603.123C412.712 602.842 412.498 602.476 412.346 602.024C412.199 601.573 412.126 601.031 412.126 600.398V594.264H413.752V600.416C413.752 600.844 413.799 601.198 413.893 601.479C413.992 601.755 414.124 601.975 414.288 602.139C414.458 602.297 414.646 602.408 414.851 602.473C415.062 602.537 415.278 602.569 415.501 602.569C416.192 602.569 416.74 602.438 417.145 602.174C417.549 601.904 417.839 601.544 418.015 601.093C418.196 600.636 418.287 600.129 418.287 599.572ZM426.074 594.264V595.512H420.933V594.264H426.074ZM422.673 591.952H424.299V601.418C424.299 601.74 424.349 601.983 424.448 602.147C424.548 602.312 424.677 602.42 424.835 602.473C424.993 602.525 425.163 602.552 425.345 602.552C425.479 602.552 425.62 602.54 425.767 602.517C425.919 602.487 426.033 602.464 426.109 602.446L426.118 603.773C425.989 603.814 425.819 603.853 425.608 603.888C425.403 603.929 425.154 603.949 424.861 603.949C424.463 603.949 424.097 603.87 423.763 603.712C423.429 603.554 423.162 603.29 422.963 602.921C422.77 602.546 422.673 602.042 422.673 601.409V591.952ZM429.607 590.273V603.773H427.981V590.273H429.607ZM429.221 598.658L428.544 598.632C428.55 597.981 428.646 597.381 428.834 596.83C429.021 596.273 429.285 595.79 429.625 595.38C429.965 594.97 430.369 594.653 430.838 594.431C431.312 594.202 431.837 594.088 432.411 594.088C432.88 594.088 433.302 594.152 433.677 594.281C434.052 594.404 434.371 594.604 434.635 594.879C434.904 595.154 435.109 595.512 435.25 595.951C435.391 596.385 435.461 596.915 435.461 597.542V603.773H433.826V597.524C433.826 597.026 433.753 596.628 433.606 596.329C433.46 596.024 433.246 595.805 432.965 595.67C432.684 595.529 432.338 595.459 431.928 595.459C431.523 595.459 431.154 595.544 430.82 595.714C430.492 595.884 430.208 596.118 429.968 596.417C429.733 596.716 429.549 597.059 429.414 597.445C429.285 597.826 429.221 598.23 429.221 598.658ZM437.465 599.124V598.922C437.465 598.236 437.564 597.601 437.764 597.015C437.963 596.423 438.25 595.91 438.625 595.477C439 595.037 439.454 594.697 439.987 594.457C440.521 594.211 441.118 594.088 441.78 594.088C442.448 594.088 443.049 594.211 443.582 594.457C444.121 594.697 444.578 595.037 444.953 595.477C445.334 595.91 445.624 596.423 445.823 597.015C446.022 597.601 446.122 598.236 446.122 598.922V599.124C446.122 599.81 446.022 600.445 445.823 601.031C445.624 601.617 445.334 602.13 444.953 602.569C444.578 603.003 444.124 603.343 443.591 603.589C443.063 603.829 442.466 603.949 441.798 603.949C441.13 603.949 440.529 603.829 439.996 603.589C439.463 603.343 439.006 603.003 438.625 602.569C438.25 602.13 437.963 601.617 437.764 601.031C437.564 600.445 437.465 599.81 437.465 599.124ZM439.091 598.922V599.124C439.091 599.599 439.146 600.047 439.258 600.469C439.369 600.885 439.536 601.254 439.759 601.576C439.987 601.898 440.271 602.153 440.611 602.341C440.951 602.522 441.347 602.613 441.798 602.613C442.243 602.613 442.633 602.522 442.967 602.341C443.307 602.153 443.588 601.898 443.811 601.576C444.033 601.254 444.2 600.885 444.312 600.469C444.429 600.047 444.487 599.599 444.487 599.124V598.922C444.487 598.453 444.429 598.011 444.312 597.595C444.2 597.173 444.03 596.801 443.802 596.479C443.579 596.15 443.298 595.893 442.958 595.705C442.624 595.518 442.231 595.424 441.78 595.424C441.335 595.424 440.942 595.518 440.603 595.705C440.269 595.893 439.987 596.15 439.759 596.479C439.536 596.801 439.369 597.173 439.258 597.595C439.146 598.011 439.091 598.453 439.091 598.922ZM449.787 595.758V603.773H448.161V594.264H449.743L449.787 595.758ZM452.758 594.211L452.749 595.723C452.614 595.693 452.485 595.676 452.362 595.67C452.245 595.658 452.11 595.652 451.958 595.652C451.583 595.652 451.252 595.711 450.965 595.828C450.678 595.945 450.435 596.109 450.235 596.32C450.036 596.531 449.878 596.783 449.761 597.076C449.649 597.363 449.576 597.68 449.541 598.025L449.084 598.289C449.084 597.715 449.14 597.176 449.251 596.672C449.368 596.168 449.547 595.723 449.787 595.336C450.027 594.943 450.332 594.639 450.701 594.422C451.076 594.199 451.521 594.088 452.037 594.088C452.154 594.088 452.289 594.103 452.441 594.132C452.594 594.155 452.699 594.182 452.758 594.211Z" fill="black"/>
<defs>
<linearGradient id="paint0_linear_1226_9106" x1="-38.0508" y1="736.674" x2="726.918" y2="738.651" gradientUnits="userSpaceOnUse">
<stop stop-color="#E8E8E8"/>
<stop offset="0.842028" stop-color="#DCDCDC"/>
<stop offset="1" stop-color="#B4B4B4"/>
</linearGradient>
<linearGradient id="paint1_linear_1226_9106" x1="-29.1563" y1="730.747" x2="735.813" y2="732.724" gradientUnits="userSpaceOnUse">
<stop stop-color="#E8E8E8"/>
<stop offset="0.842028" stop-color="#DCDCDC"/>
<stop offset="1" stop-color="#B4B4B4"/>
</linearGradient>
<linearGradient id="paint2_linear_1226_9106" x1="-20.2598" y1="725.807" x2="744.709" y2="727.784" gradientUnits="userSpaceOnUse">
<stop stop-color="#E8E8E8"/>
<stop offset="0.842028" stop-color="#DCDCDC"/>
<stop offset="1" stop-color="#B4B4B4"/>
</linearGradient>
<linearGradient id="paint3_linear_1226_9106" x1="1478.05" y1="736.674" x2="713.082" y2="738.651" gradientUnits="userSpaceOnUse">
<stop stop-color="#E8E8E8"/>
<stop offset="0.842028" stop-color="#DCDCDC"/>
<stop offset="1" stop-color="#B4B4B4"/>
</linearGradient>
<linearGradient id="paint4_linear_1226_9106" x1="1469.15" y1="730.747" x2="704.185" y2="732.724" gradientUnits="userSpaceOnUse">
<stop stop-color="#E8E8E8"/>
<stop offset="0.842028" stop-color="#DCDCDC"/>
<stop offset="1" stop-color="#B4B4B4"/>
</linearGradient>
<linearGradient id="paint5_linear_1226_9106" x1="1460.26" y1="725.807" x2="695.291" y2="727.784" gradientUnits="userSpaceOnUse">
<stop stop-color="#E8E8E8"/>
<stop offset="0.842028" stop-color="#DCDCDC"/>
<stop offset="1" stop-color="#B4B4B4"/>
</linearGradient>
</defs>
</svg>
