<svg width="20" height="15" viewBox="0 0 20 15" fill="none" xmlns="http://www.w3.org/2000/svg">
<path d="M5.55106 0.25C5.68238 0.151509 5.83182 0.0798475 5.99083 0.039108C6.14985 -0.00163144 6.31534 -0.0106515 6.47784 0.0125631C6.64034 0.0357778 6.79668 0.0907724 6.93793 0.174407C7.07918 0.258042 7.20257 0.368679 7.30106 0.5C7.39955 0.631322 7.47121 0.780758 7.51195 0.939774C7.55269 1.09879 7.56171 1.26427 7.5385 1.42678C7.51528 1.58928 7.46029 1.74562 7.37665 1.88687C7.29302 2.02812 7.18238 2.15151 7.05106 2.25C5.09606 3.71625 3.97606 5.1425 3.33481 6.3875C4.21527 6.16085 5.14447 6.21414 5.99326 6.53994C6.84204 6.86575 7.56824 7.44789 8.07092 8.20545C8.57359 8.96302 8.82777 9.85836 8.79812 10.767C8.76848 11.6757 8.45647 12.5526 7.90549 13.2758C7.3545 13.999 6.5919 14.5325 5.72368 14.8023C4.85547 15.0721 3.92477 15.0647 3.06095 14.7812C2.19713 14.4976 1.44311 13.952 0.903694 13.2201C0.364275 12.4883 0.0662562 11.6065 0.0510607 10.6975C-0.109112 9.16241 0.108899 7.61145 0.686061 6.18C1.43231 4.2975 2.89106 2.245 5.55106 0.25ZM16.8011 0.25C16.9324 0.151509 17.0818 0.0798475 17.2408 0.039108C17.3999 -0.00163144 17.5653 -0.0106515 17.7278 0.0125631C17.8903 0.0357778 18.0467 0.0907724 18.1879 0.174407C18.3292 0.258042 18.4526 0.368679 18.5511 0.5C18.6496 0.631322 18.7212 0.780758 18.762 0.939774C18.8027 1.09879 18.8117 1.26427 18.7885 1.42678C18.7653 1.58928 18.7103 1.74562 18.6267 1.88687C18.543 2.02812 18.4324 2.15151 18.3011 2.25C16.3461 3.71625 15.2261 5.1425 14.5848 6.3875C15.4653 6.16085 16.3945 6.21414 17.2433 6.53994C18.092 6.86575 18.8182 7.44789 19.3209 8.20545C19.8236 8.96302 20.0778 9.85836 20.0481 10.767C20.0185 11.6757 19.7065 12.5526 19.1555 13.2758C18.6045 13.999 17.8419 14.5325 16.9737 14.8023C16.1055 15.0721 15.1748 15.0647 14.311 14.7812C13.4471 14.4976 12.6931 13.952 12.1537 13.2201C11.6143 12.4883 11.3163 11.6065 11.3011 10.6975C11.1409 9.16241 11.3589 7.61145 11.9361 6.18C12.6836 4.2975 14.1411 2.245 16.8011 0.25Z" fill="#07367A"/>
</svg>
