<svg width="20" height="20" viewBox="0 0 20 20" fill="none" xmlns="http://www.w3.org/2000/svg">
<path d="M10 2C5.58154 2 2 5.08135 2 8.87413C2 11.2707 3.4359 13.3783 5.60615 14.6055L4.8841 17.7447C4.87484 17.7839 4.8765 17.8252 4.88888 17.8633C4.90127 17.9015 4.92382 17.9348 4.95368 17.9591C4.98354 17.9834 5.01938 17.9975 5.05665 17.9997C5.09392 18.0019 5.13096 17.9921 5.16308 17.9715L8.76923 15.6504C9.17737 15.7079 9.58843 15.7376 10 15.7394C14.4185 15.7394 18 12.6669 18 8.87413C18 5.08135 14.4185 2 10 2Z" stroke="#4F4F4F" stroke-linecap="round" stroke-linejoin="round"/>
<path d="M10 10C10.5523 10 11 9.55228 11 9C11 8.44771 10.5523 8 10 8C9.44771 8 9 8.44771 9 9C9 9.55228 9.44771 10 10 10Z" stroke="#4F4F4F" stroke-linecap="round" stroke-linejoin="round"/>
<path d="M14 10C14.5523 10 15 9.55228 15 9C15 8.44771 14.5523 8 14 8C13.4477 8 13 8.44771 13 9C13 9.55228 13.4477 10 14 10Z" stroke="#4F4F4F" stroke-linecap="round" stroke-linejoin="round"/>
<path d="M6 10C6.55228 10 7 9.55228 7 9C7 8.44771 6.55228 8 6 8C5.44772 8 5 8.44771 5 9C5 9.55228 5.44772 10 6 10Z" stroke="#4F4F4F" stroke-linecap="round" stroke-linejoin="round"/>
</svg>
